 <svg  version="1.0" xmlns="http://www.w3.org/2000/svg"  width="300.000000pt" height="300.000000pt" viewBox="0 0 300.000000 300.000000"  preserveAspectRatio="xMidYMid meet">  <g transform="translate(0.000000,300.000000) scale(0.050000,-0.050000)" fill="#7c2aa2" stroke="none"> <path d="M1800 5971 c0 -43 30 -54 88 -32 51 20 77 -6 27 -26 -14 -5 -6 -11 18 -11 27 -1 46 13 53 40 6 23 20 36 31 30 11 -7 26 -4 33 8 8 13 -35 20 -119 20 -101 0 -131 -7 -131 -29z"/> <path d="M2114 5960 c6 -22 23 -40 38 -40 16 0 28 -9 28 -20 0 -11 -11 -20 -25 -20 -30 0 -78 -70 -60 -88 18 -19 49 -14 36 6 -6 9 2 28 17 41 20 16 33 16 41 2 21 -34 91 -25 91 12 0 39 56 85 106 86 20 1 31 10 24 21 -7 11 -2 20 10 20 14 0 18 -16 10 -40 -7 -23 -4 -40 9 -40 11 0 21 -10 21 -22 0 -12 -13 -17 -29 -11 -15 6 -32 1 -36 -11 -4 -12 -29 -26 -55 -30 -27 -4 -53 -15 -59 -24 -6 -9 -32 -23 -58 -31 -25 -8 -41 -19 -35 -25 6 -6 71 9 146 34 221 74 246 84 246 104 0 10 9 13 20 6 11 -7 20 -5 20 4 0 16 17 18 416 30 172 5 230 14 245 36 16 26 18 25 19 -3 0 -24 33 -38 135 -56 141 -24 160 -28 455 -108 99 -27 207 -48 240 -46 36 2 58 -6 56 -20 -3 -13 47 -41 110 -63 62 -22 132 -46 154 -54 32 -11 34 -10 10 8 -19 13 -21 22 -6 22 13 0 31 -12 40 -27 9 -15 111 -73 226 -128 478 -228 1085 -741 1248 -1055 32 -60 32 -59 32 80 -1 98 -6 131 -20 110 -17 -26 -19 -25 -20 5 0 19 -11 33 -25 30 -14 -3 -23 5 -21 17 4 22 -178 208 -203 208 -19 0 -101 89 -101 110 0 11 -13 20 -30 20 -16 0 -30 12 -30 26 0 14 -22 37 -50 50 -27 14 -50 36 -50 49 0 13 -22 39 -48 58 -35 25 -44 26 -32 5 9 -15 -2 -10 -24 12 -23 22 -36 48 -30 58 6 11 -4 13 -22 6 -33 -12 -83 46 -63 73 5 7 3 8 -4 3 -8 -6 -35 4 -61 21 -26 17 -55 26 -64 20 -9 -5 -33 8 -52 29 -20 22 -47 40 -61 40 -13 0 -35 14 -49 30 -14 17 -42 30 -62 30 -21 0 -38 10 -38 21 0 12 -8 16 -18 10 -10 -6 -23 3 -30 20 -6 18 -20 27 -30 20 -10 -6 -23 3 -30 20 -8 21 -25 27 -52 19 -27 -8 -44 -2 -52 19 -7 17 -29 31 -50 31 -21 0 -54 16 -73 35 -19 19 -46 36 -60 37 -80 6 -90 9 -79 21 14 14 -231 104 -296 108 -34 3 -32 6 10 19 52 17 -29 32 -126 23 -20 -2 -31 6 -24 17 7 11 -2 20 -19 20 -17 0 -31 9 -31 21 0 25 -64 17 -85 -11 -9 -12 -15 -10 -15 5 0 20 -181 25 -838 25 -828 0 -838 0 -828 -40z m201 -5 c-9 -29 -95 -47 -95 -20 0 29 23 45 65 45 22 0 35 -11 30 -25z"/> <path d="M2045 5895 c3 -14 -11 -24 -31 -22 -28 2 -31 -3 -12 -25 30 -36 48 -35 88 5 27 26 28 36 6 50 -37 24 -57 21 -51 -8z"/> <path d="M1790 5866 c-28 -22 -32 -33 -15 -40 14 -5 38 -22 53 -37 24 -24 30 -24 39 2 7 16 3 29 -7 29 -10 0 -14 13 -8 28 16 42 -18 52 -62 18z"/> <path d="M1585 5799 c-25 -10 -61 -12 -80 -5 -29 11 -31 9 -10 -17 13 -17 19 -37 11 -44 -7 -7 -2 -13 11 -13 13 0 23 9 23 20 0 11 29 33 65 48 71 31 53 41 -20 11z"/> <path d="M1680 5809 c0 -12 9 -30 19 -40 13 -13 -12 -36 -69 -67 -49 -26 -84 -55 -78 -65 5 -9 -14 -8 -44 4 -56 21 -260 -86 -236 -124 5 -8 -27 -34 -71 -59 -44 -24 -74 -53 -68 -62 16 -26 -56 -99 -86 -88 -15 6 -21 -1 -15 -16 6 -15 -7 -31 -31 -38 -28 -7 -37 -21 -29 -42 7 -19 2 -32 -13 -32 -13 0 -45 -22 -71 -50 -25 -27 -52 -50 -59 -50 -16 0 74 148 95 157 9 3 16 19 16 35 0 15 9 28 20 28 11 0 20 9 20 21 0 11 40 62 89 114 50 51 85 98 79 104 -6 6 -23 -5 -37 -24 -14 -19 -36 -35 -49 -35 -14 0 -19 -9 -12 -20 7 -11 0 -20 -14 -20 -57 0 -344 -347 -435 -525 -23 -45 -33 -50 -58 -30 -25 21 -28 18 -17 -28 10 -37 4 -60 -21 -80 -31 -24 -32 -23 -10 5 18 23 20 47 7 80 -14 35 -20 39 -21 13 0 -19 -10 -35 -21 -35 -11 0 -20 -13 -20 -29 0 -15 -11 -40 -25 -55 -53 -55 -96 -138 -83 -160 8 -12 6 -17 -4 -11 -16 10 -85 -46 -73 -60 19 -21 1 -108 -21 -99 -16 6 -27 -9 -30 -43 -2 -29 -13 -56 -24 -60 -11 -3 -20 -22 -20 -40 0 -19 -12 -52 -27 -74 -28 -41 -36 -109 -12 -109 7 0 9 -23 4 -50 -8 -43 -15 -47 -41 -25 -25 21 -29 20 -20 -5 6 -16 3 -46 -7 -65 -14 -27 -11 -31 16 -21 23 9 29 5 19 -11 -8 -12 -26 -23 -41 -23 -53 0 -75 -890 -27 -1100 11 -49 23 -121 26 -160 10 -128 32 -180 75 -180 29 0 35 7 20 25 -19 25 -71 230 -97 385 -13 77 -12 460 2 623 31 372 264 996 466 1247 63 80 302 320 317 320 15 0 321 217 372 265 33 30 68 55 78 55 40 0 296 151 297 175 0 14 14 25 32 25 21 0 28 11 20 32 -8 20 -3 28 13 22 14 -5 23 -19 20 -31 -3 -13 13 -23 35 -23 22 0 40 8 40 18 0 10 16 16 35 13 19 -3 53 7 74 22 22 15 56 27 75 27 20 0 36 10 36 22 0 12 14 17 30 11 24 -10 28 -1 17 43 -16 69 -15 67 -58 51 -34 -13 -34 -15 2 -28 38 -14 38 -15 -1 -31 -22 -9 -58 -32 -80 -53 -37 -35 -40 -35 -53 -1 -8 20 -15 26 -16 14 -1 -18 -83 -68 -113 -68 -35 0 13 75 62 97 l60 27 -49 19 c-28 10 -57 30 -65 43 -9 14 -16 15 -16 3z m-190 -278 c-19 -12 -61 -42 -93 -68 -31 -25 -67 -43 -80 -39 -13 5 5 29 40 54 34 24 63 58 63 75 0 16 7 25 16 20 9 -6 29 -2 45 8 19 11 32 9 37 -6 4 -13 -8 -33 -28 -44z"/> <path d="M1362 5785 c8 -45 -7 -61 -52 -56 -41 4 -46 0 -28 -22 38 -45 142 13 123 68 -9 27 -47 35 -43 10z"/> <path d="M2120 5740 c0 -11 -20 -20 -44 -20 -28 0 -37 -7 -25 -19 27 -27 109 -3 109 31 0 16 -9 28 -20 28 -11 0 -20 -9 -20 -20z"/> <path d="M3274 5605 c34 -59 86 -59 86 0 0 11 -14 9 -30 -5 -26 -22 -29 -20 -17 12 7 21 6 31 -3 23 -9 -8 -29 -4 -44 8 -18 15 -15 1 8 -38z"/> <path d="M2924 5589 c-21 -24 -19 -29 14 -29 57 0 103 22 91 42 -17 27 -76 20 -105 -13z"/> <path d="M3169 5599 c-7 -12 -32 -30 -56 -39 -32 -13 -35 -18 -9 -19 18 0 47 13 65 30 28 29 31 29 31 0 0 -17 16 -31 35 -31 28 1 29 4 7 18 -15 10 -21 28 -13 40 7 12 0 22 -17 22 -16 0 -36 -10 -43 -21z"/> <path d="M3590 5545 c-53 -39 -76 -85 -42 -85 17 0 32 10 32 23 0 12 16 35 35 49 19 15 26 27 15 27 -11 0 -29 -6 -40 -14z"/> <path d="M1975 5349 c-66 -60 -68 -69 -15 -55 22 6 35 18 30 26 -13 20 40 63 57 46 7 -7 13 -2 13 11 0 36 -25 28 -85 -28z"/> <path d="M3574 5307 c5 -13 -7 -27 -28 -32 -20 -5 -3 -8 38 -8 40 1 69 7 65 15 -5 8 6 18 26 23 19 4 2 12 -38 17 -51 7 -70 2 -63 -15z"/> <path d="M1840 5279 c0 -14 -17 -19 -40 -13 -22 6 -40 3 -40 -6 0 -8 19 -20 42 -26 23 -6 36 -20 30 -31 -7 -11 -4 -26 7 -32 11 -7 15 7 10 33 -4 24 2 50 14 58 15 9 15 17 -1 27 -12 7 -22 3 -22 -10z"/> <path d="M2751 5221 c-43 -29 -64 -33 -74 -16 -11 17 -25 14 -52 -11 -21 -19 -43 -29 -49 -23 -6 5 -35 1 -64 -10 -35 -14 -50 -14 -42 -1 7 11 3 20 -8 20 -11 0 -26 -10 -33 -21 -24 -39 -112 -62 -141 -37 -27 22 -182 -85 -186 -129 -1 -9 26 7 61 36 75 63 103 51 35 -15 -132 -129 -270 -326 -261 -374 4 -25 2 -25 -14 -2 -15 22 -26 14 -51 -34 -42 -81 -44 -157 -2 -84 24 41 29 44 29 13 1 -29 7 -33 28 -16 15 13 33 16 41 8 8 -7 8 2 1 21 -8 20 -4 34 10 34 14 0 19 15 12 37 -7 23 4 56 30 85 23 26 36 35 28 18 -10 -21 -4 -20 23 6 33 31 34 38 8 54 -26 17 -25 19 5 20 19 0 35 8 35 18 0 10 16 16 35 15 19 -2 34 10 35 27 0 16 36 47 80 67 44 21 85 46 92 56 6 10 25 13 43 6 21 -8 36 2 44 29 11 34 27 40 101 34 63 -5 91 2 99 23 6 16 25 24 42 17 17 -6 35 2 42 18 6 17 20 30 30 30 10 0 38 18 62 40 23 22 34 40 23 40 -11 0 -31 -11 -44 -24 -13 -13 -30 -17 -37 -9 -8 7 3 27 24 43 57 42 29 36 -40 -9z"/> <path d="M4854 5227 c13 -5 18 -23 12 -40 -14 -37 31 -70 77 -56 19 6 39 1 46 -10 8 -12 -1 -21 -19 -21 -22 0 -9 -24 42 -79 40 -44 82 -74 93 -68 11 7 16 0 11 -15 -6 -17 47 -69 137 -136 80 -59 152 -127 158 -150 28 -98 73 -170 168 -269 56 -58 102 -121 104 -139 1 -19 5 -56 9 -84 4 -27 8 -93 9 -144 1 -52 33 -187 71 -300 197 -582 227 -1185 84 -1662 -49 -164 -42 -176 52 -93 74 65 91 109 47 124 -18 6 -15 22 10 61 41 61 55 1354 15 1354 -11 0 -20 23 -20 51 0 34 -8 47 -23 37 -16 -10 -20 -4 -11 19 7 18 5 33 -4 33 -9 0 -12 25 -8 55 6 38 3 47 -10 28 -13 -19 -22 -5 -31 50 -18 112 -16 191 6 178 11 -7 14 -26 8 -42 -7 -17 -4 -29 6 -27 46 8 65 -4 53 -35 -9 -24 -5 -29 12 -18 46 28 -40 237 -192 465 -39 59 -63 115 -54 128 9 16 6 19 -10 9 -21 -13 -83 45 -105 97 -4 11 -36 49 -72 86 -36 37 -65 77 -65 90 0 12 -6 17 -13 9 -15 -14 -79 68 -72 92 3 8 -14 15 -37 15 -29 0 -39 9 -31 30 7 17 3 31 -8 33 -10 1 -28 4 -39 7 -11 3 -31 6 -45 8 -14 1 -37 21 -52 45 -25 39 -23 42 15 32 25 -7 37 -3 30 8 -7 11 -32 15 -56 9 -29 -7 -63 6 -103 40 l-59 51 55 -9 c65 -10 74 17 11 37 -42 14 -42 15 -6 42 21 15 27 27 15 27 -12 0 -28 -9 -35 -20 -7 -12 -39 0 -78 30 -36 27 -78 49 -94 48 -19 -1 -20 -4 -4 -11z"/> <path d="M2802 5122 c-32 -24 -40 -41 -25 -50 13 -8 37 0 55 17 17 17 42 25 55 17 12 -8 43 -12 68 -9 25 3 45 -4 45 -16 0 -11 -15 -21 -34 -21 -82 0 33 -64 127 -71 140 -10 154 -12 181 -33 13 -11 34 -14 45 -6 41 25 119 30 132 9 8 -14 27 -9 54 15 39 33 41 33 29 1 -7 -19 -5 -35 5 -35 10 0 21 11 26 24 4 14 13 4 20 -21 9 -35 5 -43 -16 -35 -16 6 -29 3 -29 -5 0 -22 92 -63 141 -63 21 0 39 -9 39 -19 0 -11 12 -15 27 -9 15 6 34 -5 41 -23 7 -18 25 -28 40 -22 17 6 32 -6 38 -28 6 -22 25 -39 42 -39 18 0 32 -9 32 -20 0 -11 12 -20 26 -20 15 0 48 -20 75 -45 26 -25 55 -43 63 -40 8 2 10 -8 4 -23 -6 -15 5 -33 23 -40 25 -9 28 -19 12 -38 -16 -20 -11 -26 23 -25 24 1 46 -6 48 -15 2 -9 30 -41 63 -70 32 -30 63 -67 69 -84 9 -24 11 -23 12 4 1 23 13 31 33 23 17 -7 26 -17 20 -23 -6 -6 -1 -22 12 -37 12 -15 17 -45 11 -67 -6 -22 -1 -46 11 -53 12 -8 15 -4 7 10 -8 13 -6 23 4 23 27 0 66 -51 50 -67 -7 -7 -2 -13 10 -13 28 0 146 -201 132 -224 -6 -9 -2 -16 9 -16 11 0 27 -29 35 -65 20 -83 19 -79 37 -121 9 -20 10 -41 4 -48 -7 -7 -3 -24 9 -38 29 -35 4 -141 -40 -173 -19 -14 -41 -41 -48 -61 -8 -21 -24 -30 -37 -22 -13 8 -18 6 -11 -6 16 -26 -43 -110 -68 -95 -10 7 -17 0 -13 -15 3 -14 -6 -24 -20 -21 -14 3 -23 -3 -20 -13 3 -9 -27 -52 -65 -95 -39 -42 -86 -102 -106 -133 -20 -30 -45 -50 -55 -43 -11 7 -18 5 -16 -5 6 -25 -47 -126 -67 -126 -10 0 -12 10 -4 23 9 14 5 18 -9 9 -13 -8 -23 -32 -23 -54 0 -22 -9 -35 -20 -28 -11 7 -20 3 -20 -9 0 -11 -14 -21 -31 -21 -17 0 -26 -8 -20 -18 6 -9 -3 -29 -19 -42 -17 -14 -30 -35 -30 -48 0 -19 -72 -79 -100 -82 -5 0 -21 -8 -35 -16 -14 -10 -25 -7 -25 5 0 11 -11 21 -25 21 -33 0 -135 89 -135 117 0 13 -10 23 -23 23 -31 0 -99 81 -85 103 6 10 -1 16 -15 12 -14 -3 -26 8 -26 23 -1 16 -17 31 -37 34 -47 6 -117 87 -100 114 6 11 3 15 -8 8 -27 -17 -110 63 -93 90 7 13 4 17 -8 9 -11 -7 -32 1 -46 19 -115 138 -261 126 -427 -37 -56 -56 -84 -89 -62 -74 39 28 39 28 2 -16 -20 -24 -54 -49 -74 -56 -21 -6 -35 -22 -33 -35 3 -13 -6 -22 -20 -19 -14 3 -23 -3 -20 -13 3 -10 -3 -17 -12 -15 -9 2 -29 -27 -44 -63 -16 -37 -36 -62 -47 -56 -10 7 -23 -2 -30 -19 -6 -18 -22 -25 -35 -17 -15 9 -18 5 -9 -9 8 -13 25 -18 38 -12 13 7 2 -7 -24 -30 -34 -30 -53 -36 -63 -20 -8 13 -14 -1 -14 -31 0 -54 -38 -97 -69 -77 -9 5 -16 -5 -16 -23 0 -20 -9 -27 -23 -18 -16 10 -20 4 -11 -19 8 -21 3 -33 -17 -33 -16 0 -29 -17 -29 -38 0 -44 -46 -88 -70 -67 -9 8 -10 4 -3 -9 15 -26 -53 -73 -74 -52 -7 7 -13 -1 -13 -17 0 -17 -13 -30 -30 -30 -16 0 -30 12 -30 28 0 15 -9 22 -20 15 -11 -7 -20 -2 -20 10 0 12 -8 17 -18 11 -26 -16 -97 105 -92 156 3 24 6 63 7 87 2 24 15 55 29 70 61 61 31 196 -51 233 -8 3 -15 24 -15 45 0 21 -7 37 -15 36 -37 -6 -65 4 -65 23 0 12 -14 36 -31 53 -17 17 -25 46 -18 68 7 24 2 38 -14 38 -19 0 -20 5 -1 24 30 30 32 83 2 65 -14 -9 -12 4 3 34 14 26 24 47 21 47 -2 0 2 16 9 35 7 20 9 58 4 85 -5 27 -1 44 9 37 10 -6 24 8 30 31 10 38 15 36 68 -31 32 -39 53 -80 47 -89 -6 -10 3 -18 20 -18 17 0 31 -13 31 -29 0 -16 10 -35 23 -43 16 -10 18 -5 7 14 -9 15 3 11 27 -10 23 -21 43 -50 43 -65 0 -15 11 -25 25 -22 14 3 22 -8 18 -25 -3 -16 0 -23 8 -15 9 8 44 -3 79 -25 35 -22 70 -33 79 -25 8 8 11 5 8 -8 -14 -46 21 -35 106 33 48 38 94 68 102 65 8 -3 13 6 10 20 -3 14 7 23 21 20 15 -4 22 2 17 11 -6 9 6 42 26 72 25 39 40 48 47 29 8 -19 11 -17 12 7 1 18 16 47 33 65 18 17 25 31 17 31 -8 0 15 27 51 59 37 33 75 55 84 49 9 -6 17 -2 17 9 0 11 -11 24 -25 30 -14 5 -2 11 25 12 40 1 44 6 20 21 -30 19 -7 31 45 22 8 -1 15 11 15 26 0 16 11 33 25 39 20 8 20 10 0 11 -34 3 35 82 71 82 14 0 21 8 15 19 -6 10 8 24 33 32 27 9 47 5 52 -8 4 -13 14 -19 23 -14 20 13 163 -141 146 -157 -6 -7 6 -12 27 -12 32 -1 33 -4 8 -20 -24 -16 -21 -19 16 -20 28 0 52 -17 63 -45 10 -25 19 -38 20 -29 2 26 159 -128 172 -169 6 -20 27 -37 45 -37 29 -1 30 -3 4 -20 -25 -16 -22 -19 13 -20 48 0 94 -45 72 -70 -8 -9 -4 -10 8 -3 13 7 36 2 50 -12 15 -14 52 -38 82 -53 30 -16 55 -36 55 -45 0 -10 14 -17 31 -17 17 0 26 9 19 20 -7 11 2 20 20 20 18 0 27 9 20 20 -7 11 2 20 19 20 18 0 37 13 44 30 6 16 19 25 29 19 10 -6 18 3 18 20 0 28 23 40 65 33 8 -1 13 9 10 23 -3 14 6 23 20 20 21 -4 37 43 20 60 -3 3 34 44 82 90 48 47 82 85 75 85 -8 0 -4 17 7 38 26 48 -55 201 -131 252 -28 18 -47 38 -42 43 12 11 -81 107 -104 107 -28 0 -83 73 -67 90 8 9 6 11 -6 5 -11 -7 -34 -4 -50 6 -21 13 -22 18 -3 19 21 0 21 5 0 28 -14 15 -32 24 -40 20 -7 -5 -38 27 -70 71 -31 44 -64 80 -73 81 -31 0 -119 80 -91 81 16 1 8 10 -17 20 -25 10 -45 32 -45 48 0 17 -17 31 -38 31 -34 0 -73 49 -65 84 1 8 -9 10 -23 5 -26 -10 -128 108 -118 137 3 10 -4 12 -14 5 -27 -16 -156 116 -145 149 6 18 -3 22 -27 13 -21 -8 -44 -2 -58 16 -12 16 -35 32 -52 35 -16 3 -41 20 -54 36 -22 26 -25 26 -25 -5 -1 -19 -17 -35 -36 -36 -19 0 -57 -27 -84 -60 -27 -32 -65 -59 -85 -59 -20 0 -34 -11 -31 -25 3 -14 -7 -23 -21 -20 -15 4 -21 -3 -14 -15 7 -11 -17 -34 -54 -50 -58 -25 -62 -42 -8 -31 10 2 7 -11 -7 -28 -14 -17 -35 -25 -46 -18 -13 8 -15 3 -7 -10 9 -14 -11 -50 -47 -85 -33 -33 -61 -70 -61 -81 0 -11 -8 -14 -18 -8 -10 6 -23 -3 -30 -20 -6 -18 -21 -26 -32 -19 -11 7 -15 0 -10 -14 13 -32 -85 -141 -112 -125 -10 7 -17 5 -15 -5 8 -29 -25 -107 -42 -97 -9 6 -32 -8 -51 -29 -20 -22 -28 -41 -18 -42 10 -1 -9 -14 -42 -29 -33 -15 -48 -28 -33 -28 22 -1 23 -7 3 -31 -13 -16 -34 -24 -45 -17 -12 7 -15 4 -8 -8 16 -27 -43 -90 -69 -74 -10 7 -17 5 -15 -5 7 -31 -39 -116 -86 -158 -26 -23 -67 -67 -92 -98 -24 -32 -49 -52 -56 -46 -6 6 4 26 22 45 19 18 28 39 20 47 -8 7 -31 -9 -53 -36 l-39 -50 12 60 c11 58 11 59 -22 20 -32 -39 -33 -39 -18 10 8 28 24 57 37 65 15 10 14 14 -5 15 -19 0 -22 17 -12 62 9 44 5 68 -14 80 -22 14 -21 17 3 18 23 0 31 30 34 133 2 73 13 142 23 152 11 11 15 34 8 51 -7 18 -3 25 9 18 12 -8 34 2 49 21 24 32 24 32 -8 8 -41 -33 -45 -9 -12 71 26 62 31 77 35 106 1 11 16 20 32 20 17 0 30 9 30 19 0 11 -14 15 -30 8 -37 -14 -21 43 26 98 17 19 24 41 17 48 -7 8 -16 10 -19 5 -72 -104 -114 -174 -114 -187 0 -10 -22 -47 -50 -83 -27 -36 -50 -79 -50 -95 0 -17 -9 -36 -21 -44 -24 -14 -5 -91 29 -116 13 -10 9 -12 -13 -6 -20 7 -35 1 -36 -13 0 -13 -5 -71 -10 -129 -6 -63 -1 -105 11 -105 11 0 19 -34 18 -75 -2 -42 -7 -58 -12 -35 -6 22 -19 49 -31 60 -14 14 -16 11 -5 -7 9 -16 4 -35 -12 -45 -20 -13 -21 -17 -3 -18 14 0 25 -21 25 -46 0 -25 10 -56 23 -69 12 -12 16 -38 8 -59 -14 -34 -16 -34 -34 4 -14 32 -15 30 -4 -10 22 -82 21 -288 -2 -319 -17 -23 -13 -26 19 -14 36 14 36 12 -4 -31 -37 -39 -41 -58 -27 -120 9 -43 9 -77 -2 -80 -10 -4 58 -82 151 -174 l170 -169 -106 -121 c-105 -122 -105 -122 -65 -160 38 -37 39 -37 26 -2 -14 36 -13 36 24 2 27 -24 37 -54 32 -94 -4 -32 1 -58 11 -58 9 0 23 -18 30 -40 7 -22 21 -35 31 -29 11 6 19 -2 19 -19 0 -16 10 -36 23 -44 15 -9 18 -5 7 12 -11 17 -8 21 7 12 13 -8 23 -27 23 -43 0 -16 10 -29 22 -29 12 0 17 -13 11 -30 -6 -16 -5 -29 3 -27 42 6 46 -7 14 -43 -20 -22 -31 -40 -24 -40 6 0 199 214 428 477 229 262 466 533 526 602 61 69 118 139 127 156 14 23 112 -64 443 -395 l426 -426 59 68 c190 219 917 1055 950 1091 33 38 35 49 12 90 -14 26 -27 79 -28 117 -1 39 -31 133 -66 210 -88 190 -95 201 -126 193 -15 -3 -21 0 -13 8 8 8 1 41 -16 73 -17 33 -36 55 -42 48 -7 -6 0 -25 14 -42 22 -26 20 -29 -7 -18 -18 7 -33 27 -33 46 0 18 -18 49 -40 67 -37 32 -51 75 -41 125 3 11 -2 14 -10 6 -8 -8 -31 -6 -52 5 -26 14 -37 14 -37 -1 0 -13 -9 -17 -20 -10 -12 7 -16 20 -10 30 5 9 -7 12 -28 6 -20 -5 -44 2 -53 15 -10 16 -7 20 7 11 15 -9 21 6 18 45 -3 41 -12 55 -32 47 -16 -6 -23 -2 -16 9 16 26 -175 227 -216 227 -16 0 -30 7 -31 15 0 8 -35 37 -78 63 -45 27 -84 70 -91 98 -8 35 -19 43 -33 29 -15 -15 -55 -4 -134 36 -255 130 -364 169 -334 120 7 -11 25 -14 42 -8 16 6 29 0 29 -13 0 -17 -15 -20 -45 -10 -42 14 -160 29 -240 31 -20 1 -31 9 -26 18 6 9 -3 22 -21 29 -45 17 -48 16 -35 -19 13 -33 -60 -25 -137 14 -46 24 -59 21 -114 -21z m824 -957 l628 -624 -190 -221 c-104 -121 -196 -220 -203 -220 -7 0 -205 191 -438 425 l-425 425 -40 -50 c-23 -27 -195 -233 -384 -456 l-344 -406 -216 224 c-118 124 -208 230 -199 236 9 7 163 179 343 382 347 392 372 420 594 670 78 88 159 180 179 205 51 60 -11 113 695 -590z m-1970 69 c-12 -41 -30 -74 -39 -74 -9 0 -12 11 -7 25 38 107 52 139 60 132 5 -5 -2 -42 -14 -83z"/> <path d="M4429 5120 c0 -27 6 -32 24 -18 15 13 28 13 36 -1 17 -26 125 -28 140 -2 7 11 23 17 37 13 13 -3 17 -2 9 3 -8 5 -9 19 -2 32 8 13 -4 7 -26 -12 -47 -41 -87 -46 -87 -10 -1 19 -5 18 -17 -1 -14 -22 -22 -22 -46 0 -42 39 -68 38 -68 -4z"/> <path d="M1560 5000 c-19 -35 -16 -37 24 -23 52 20 72 63 28 63 -17 0 -40 -18 -52 -40z"/> <path d="M1227 4986 c-46 -16 -4 -86 50 -83 49 2 50 3 7 11 -36 7 -41 15 -24 36 24 28 4 50 -33 36z"/> <path d="M2025 4927 c-25 -18 -45 -48 -45 -68 0 -19 -31 -73 -70 -119 -101 -121 -86 -128 20 -10 49 55 90 116 90 135 0 19 14 35 31 35 17 0 26 8 20 18 -6 10 0 23 14 29 14 5 16 10 5 10 -11 1 -40 -13 -65 -30z"/> <path d="M1392 4887 c-12 -30 103 -31 122 -1 7 11 2 14 -11 6 -13 -8 -23 -7 -23 3 0 26 -78 19 -88 -8z"/> <path d="M1040 4791 c0 -40 23 -51 61 -30 21 11 38 11 42 0 4 -10 32 -13 62 -7 45 9 51 16 33 39 -20 23 -28 22 -52 -8 -16 -19 -23 -24 -16 -10 7 14 1 26 -14 28 -14 1 -46 4 -71 7 -25 2 -45 -6 -45 -19z"/> <path d="M1755 4752 c-46 -96 -44 -109 6 -45 23 29 39 68 35 86 -4 22 -18 8 -41 -41z"/> <path d="M1335 4785 c-19 -4 -35 -17 -35 -28 0 -10 9 -14 20 -7 11 7 52 3 91 -8 62 -17 69 -16 48 10 -14 16 -29 24 -35 19 -6 -6 -20 -3 -32 6 -12 9 -38 12 -57 8z"/> <path d="M1793 4686 c-38 -63 -65 -122 -60 -131 15 -23 47 3 47 38 0 17 17 55 37 84 38 55 68 123 54 123 -4 0 -39 -52 -78 -114z"/> <path d="M4880 4739 c-25 -17 -23 -20 10 -18 71 6 75 0 39 -56 -19 -30 -28 -48 -19 -40 9 8 28 5 42 -6 19 -16 22 -11 13 23 -9 34 -5 40 17 27 21 -13 21 -6 -4 31 -38 58 -58 66 -98 39z"/> <path d="M575 4691 c-19 -27 -35 -58 -35 -69 0 -11 -16 -29 -35 -40 -19 -12 -29 -21 -21 -21 7 -1 -22 -71 -65 -156 -44 -85 -79 -163 -79 -173 0 -11 -14 -34 -30 -52 -26 -29 -26 -33 -1 -33 22 0 63 70 73 127 7 36 200 386 233 422 29 31 32 44 10 43 -8 0 -31 -22 -50 -48z"/> <path d="M970 4620 c-7 -11 -7 -29 0 -40 7 -11 3 -20 -9 -20 -11 0 -19 -11 -16 -25 3 -14 -6 -23 -20 -20 -14 3 -25 -4 -25 -15 0 -11 -13 -20 -30 -20 -16 0 -30 -9 -30 -19 0 -44 125 26 144 82 11 31 29 57 39 57 11 0 14 9 7 20 -7 11 -20 20 -30 20 -10 0 -23 -9 -30 -20z"/> <path d="M1370 4600 c-20 -22 -27 -40 -15 -40 12 0 25 11 30 25 7 19 16 19 42 -2 35 -30 40 -24 21 25 -16 42 -34 40 -78 -8z"/> <path d="M1227 4500 c-24 -9 -50 -29 -58 -44 -9 -14 -8 -20 0 -12 24 21 91 -20 91 -56 0 -17 10 -24 22 -17 16 10 18 -7 9 -53 -11 -58 -9 -62 11 -28 12 22 36 50 52 63 24 20 20 28 -28 51 -41 20 -54 39 -50 72 4 24 4 43 0 43 -3 -1 -25 -9 -49 -19z"/> <path d="M747 4455 c-25 -34 -52 -94 -166 -365 -20 -48 -100 -323 -111 -380 -4 -22 -16 -69 -27 -105 l-20 -65 102 0 c110 0 123 16 20 24 -67 5 -69 14 -29 146 6 22 13 49 14 60 1 11 14 47 29 80 15 33 25 72 23 87 -3 15 4 22 14 16 10 -7 30 24 44 68 18 54 36 77 55 70 15 -6 22 -2 15 9 -24 38 13 198 47 207 30 7 30 9 -1 11 -31 2 -32 8 -4 74 31 74 28 109 -5 63z"/> <path d="M4800 4443 l-50 -7 60 -28 c44 -21 48 -26 15 -20 -50 9 -80 -18 -37 -34 31 -12 112 37 112 68 0 11 -8 15 -18 9 -10 -6 -22 -4 -25 4 -4 8 -29 12 -57 8z"/> <path d="M1113 4246 c-5 -9 28 -15 73 -12 51 2 73 -2 57 -12 -32 -20 9 -102 52 -102 35 0 31 33 -6 48 -17 6 -28 27 -25 47 6 37 -129 65 -151 31z"/> <path d="M924 4216 c-35 -35 -30 -77 8 -63 25 10 26 16 5 31 -19 13 -10 16 28 10 45 -7 51 -3 33 19 -28 33 -43 34 -74 3z"/> <path d="M4880 4179 c0 -12 9 -16 21 -8 11 7 32 3 46 -8 40 -33 117 -21 88 13 -16 19 -26 21 -31 6 -4 -12 -16 -22 -27 -22 -11 0 -15 7 -10 16 6 8 -12 17 -38 20 -27 2 -49 -6 -49 -17z"/> <path d="M269 4009 c-18 -61 -28 -117 -22 -123 6 -5 21 29 34 77 12 48 31 97 42 110 12 15 12 28 -1 36 -12 7 -34 -36 -53 -100z"/> <path d="M4991 4101 c-8 -12 1 -21 19 -21 18 0 26 -10 19 -21 -7 -12 -26 -17 -41 -11 -15 6 -28 2 -28 -9 0 -30 74 -22 87 10 13 35 -37 83 -56 52z"/> <path d="M5410 4101 c-43 -12 -53 -46 -22 -74 11 -10 13 -7 5 7 -19 32 54 71 81 44 13 -13 19 -10 19 8 0 29 -20 33 -83 15z"/> <path d="M835 3992 c-15 -15 -45 -32 -66 -38 -35 -8 -36 -10 -3 -12 26 -1 33 -13 25 -40 -12 -36 40 -78 65 -52 6 5 2 10 -10 10 -11 0 -19 25 -18 55 1 30 12 53 24 51 12 -2 21 9 21 25 0 36 -3 36 -38 1z"/> <path d="M5149 3958 c-10 -16 -7 -19 11 -8 16 10 40 -1 64 -32 22 -26 33 -35 25 -20 -12 21 -3 25 38 18 29 -6 53 -4 53 5 0 8 -25 19 -55 24 -30 5 -70 16 -88 24 -19 8 -39 3 -48 -11z"/> <path d="M1205 3892 c20 -19 30 -43 24 -53 -6 -10 3 -13 20 -7 33 13 43 68 13 68 -10 0 -35 6 -55 14 -35 13 -35 12 -2 -22z"/> <path d="M1430 3837 c-7 -48 -14 -109 -15 -137 -2 -27 -13 -57 -24 -65 -14 -9 -12 -14 5 -15 14 0 34 -20 44 -45 14 -34 16 -21 9 51 -5 57 -2 92 9 85 17 -10 8 188 -8 206 -4 4 -13 -32 -20 -80z"/> <path d="M5091 3902 c-6 -10 -5 -34 2 -53 10 -24 6 -31 -10 -21 -12 8 -23 6 -23 -5 0 -22 61 -49 76 -33 6 5 0 10 -14 10 -13 0 -19 9 -11 21 8 14 22 13 42 -3 23 -20 28 -19 23 4 -3 15 5 26 19 23 14 -3 25 5 25 17 0 12 -13 17 -29 11 -15 -6 -33 0 -38 13 -7 18 -10 18 -11 -1 -1 -14 -12 -25 -24 -25 -12 0 -17 14 -11 30 13 33 2 41 -16 12z"/> <path d="M940 3833 c-23 -37 -22 -40 2 -19 35 28 95 23 116 -11 17 -27 82 -10 82 21 0 11 -15 15 -33 8 -17 -7 -45 -2 -62 12 -46 38 -76 35 -105 -11z"/> <path d="M5421 3732 c6 -5 46 -14 90 -20 43 -5 82 -10 86 -11 5 0 -3 -14 -16 -29 -19 -24 -16 -27 19 -18 69 18 0 71 -104 81 -47 4 -81 3 -75 -3z"/> <path d="M5119 3639 c-12 -7 38 -13 111 -13 72 -1 127 4 121 9 -15 16 -208 19 -232 4z"/> <path d="M120 3560 c-38 -12 -25 -16 58 -18 60 -1 105 1 100 5 -22 19 -113 26 -158 13z"/> <path d="M705 3545 c41 -4 109 -4 150 0 41 5 8 8 -75 8 -82 0 -116 -3 -75 -8z"/> <path d="M450 3499 c-152 -11 -146 -12 95 -18 140 -3 264 -8 275 -11 11 -3 43 -6 71 -7 30 -2 46 -12 39 -23 -7 -12 -6 -19 4 -16 9 3 91 -69 183 -159 186 -184 175 -176 190 -136 7 18 1 25 -15 19 -33 -12 -317 288 -299 317 7 12 4 15 -8 8 -12 -7 -35 0 -51 16 -30 30 -161 33 -484 10z"/> <path d="M1206 3486 c5 -24 -1 -48 -13 -53 -13 -5 -2 -8 24 -7 25 2 55 19 65 38 15 28 12 33 -14 23 -17 -7 -41 0 -52 15 -15 21 -17 17 -10 -16z"/> <path d="M4991 3502 c-12 -20 -3 -21 313 -28 151 -4 281 -12 289 -20 7 -7 25 -4 40 9 54 44 24 -15 -44 -89 -39 -42 -81 -69 -93 -62 -13 9 -17 5 -8 -8 14 -24 -27 -104 -54 -104 -20 0 -65 -43 -76 -73 -23 -61 -159 -185 -193 -175 -27 9 -29 7 -7 -8 23 -17 23 -26 -2 -62 -16 -23 -37 -35 -46 -27 -9 8 -11 5 -4 -7 7 -12 -14 -47 -47 -79 -58 -55 -85 -115 -32 -72 15 13 34 16 43 8 9 -8 10 -4 3 8 -21 37 48 97 71 63 13 -18 15 -14 8 14 -8 30 17 67 96 145 59 58 123 137 141 176 28 59 39 67 63 47 24 -19 26 -17 15 13 -11 27 -6 33 17 24 21 -8 30 -1 29 22 -2 20 9 30 27 26 16 -3 24 0 16 8 -13 13 141 214 194 254 11 8 -153 14 -365 14 -211 -1 -389 -9 -394 -17z"/> <path d="M455 3119 c47 -52 59 -77 43 -93 -16 -16 -8 -21 29 -19 l51 3 -43 45 c-23 25 -33 45 -22 45 26 0 147 -132 136 -148 -5 -7 -4 -8 3 -3 23 16 391 -368 376 -392 -9 -15 -5 -18 10 -8 13 8 37 3 53 -10 95 -79 29 18 -89 132 -77 74 -136 143 -130 152 6 9 -2 17 -18 17 -15 0 -99 68 -186 150 -87 83 -161 140 -165 129 -4 -13 -30 -2 -60 24 -35 31 -31 23 12 -24z"/> <path d="M102 2895 c-18 -48 -8 -95 20 -95 9 0 16 32 14 70 -3 81 -11 87 -34 25z"/> <path d="M5370 2821 c-22 -9 -46 -12 -54 -8 -7 4 -19 -2 -26 -14 -9 -14 -21 -15 -38 0 -18 14 -25 13 -25 -5 0 -15 23 -25 56 -25 32 1 57 8 57 16 0 8 13 15 29 15 16 0 34 9 41 20 14 23 14 23 -40 1z"/> <path d="M507 2765 c-32 -26 -38 -45 -26 -75 9 -22 17 -29 18 -16 0 13 21 26 46 30 25 4 43 18 40 31 -7 33 29 32 42 0 6 -16 10 -13 11 8 2 29 -37 58 -75 57 -7 -1 -32 -16 -56 -35z"/> <path d="M5685 2755 c9 -22 -6 -39 -47 -56 -73 -30 -90 -54 -37 -51 22 1 48 14 57 29 11 18 34 23 65 14 30 -9 38 -7 21 5 -14 10 -23 29 -20 43 3 14 -7 31 -22 36 -19 7 -25 0 -17 -20z"/> <path d="M5473 2730 c-12 -31 3 -50 40 -50 14 0 21 13 15 29 -8 21 0 25 35 17 26 -7 41 -5 33 4 -25 27 -113 27 -123 0z"/> <path d="M4948 2575 c-43 -47 -136 -152 -208 -235 -71 -82 -238 -271 -370 -420 -132 -149 -293 -332 -359 -407 l-118 -135 -423 422 -423 423 -238 -276 c-130 -153 -242 -281 -249 -287 -35 -31 -204 -245 -176 -223 30 23 44 17 110 -53 71 -74 291 -244 316 -244 6 0 45 -22 87 -48 149 -94 429 -165 683 -172 l90 -3 -70 -29 c-64 -26 -65 -27 -10 -16 33 7 71 13 84 14 13 0 20 7 15 15 -5 8 11 20 36 27 25 6 68 31 95 54 33 27 38 38 15 30 -19 -6 -35 -1 -35 10 0 12 20 18 45 15 25 -3 68 10 95 29 l49 34 -60 0 c-45 -1 -52 -5 -29 -20 31 -20 27 -22 -60 -27 -30 -2 -50 -15 -50 -33 0 -91 -573 -60 -645 35 -14 18 -25 23 -25 11 0 -16 -20 -16 -71 -1 -50 16 -63 27 -45 40 17 11 11 13 -17 5 -24 -6 -49 -2 -56 9 -8 12 -2 21 13 22 14 1 -8 15 -50 32 -57 24 -72 40 -64 68 9 27 3 33 -24 27 -22 -6 -63 16 -106 56 -38 35 -79 63 -90 60 -11 -2 -2 10 20 28 31 26 32 31 6 22 -24 -8 -35 1 -40 32 -8 48 114 228 148 219 10 -4 14 3 7 13 -15 25 47 86 72 70 11 -7 17 5 13 25 -3 20 5 35 18 32 13 -2 30 15 37 38 19 59 73 117 96 103 10 -7 13 -2 6 10 -8 11 -5 27 7 34 55 34 97 18 190 -74 63 -62 85 -94 60 -87 -22 6 -10 -2 26 -19 40 -19 60 -40 52 -54 -8 -13 -5 -17 8 -9 26 17 129 -82 113 -108 -6 -11 3 -19 20 -19 17 0 31 -13 31 -29 0 -16 10 -35 23 -43 15 -9 18 -5 8 14 -9 15 12 -1 47 -36 34 -35 62 -74 62 -86 0 -12 9 -17 20 -10 11 7 20 1 20 -12 0 -14 6 -19 13 -12 7 7 44 -15 83 -48 54 -48 73 -56 86 -35 13 20 17 17 18 -13 0 -41 -7 -43 -169 -53 -37 -3 -64 -12 -59 -21 11 -16 -14 -19 -222 -20 -89 -1 -100 -3 -40 -10 44 -5 89 -17 99 -27 10 -11 35 -19 55 -19 24 0 36 -15 36 -45 1 -35 5 -39 19 -16 10 16 14 36 9 44 -9 15 134 39 202 33 80 -7 321 29 360 54 61 38 155 130 134 130 -11 0 -54 -12 -96 -27 -127 -44 -288 -57 -288 -23 0 17 12 24 30 17 17 -6 30 -3 30 6 0 10 19 29 42 44 28 17 37 18 28 2 -11 -17 -5 -18 28 0 23 12 42 27 42 33 0 6 -11 4 -25 -4 -14 -8 -18 -7 -9 3 34 38 76 27 62 -17 -11 -35 -8 -40 14 -22 15 11 67 32 114 46 81 23 134 66 291 239 31 35 58 76 61 91 3 26 82 138 137 195 59 62 95 140 94 201 -2 55 -5 59 -19 26 -15 -35 -17 -34 -19 15 -1 51 15 64 72 57 13 -2 30 6 37 17 7 12 0 16 -17 9 -16 -6 -35 -1 -42 11 -7 11 -6 21 3 21 9 1 39 19 66 42 28 23 39 36 26 29 -13 -6 -28 -3 -35 7 -6 11 4 24 24 30 25 8 36 36 40 95 2 45 15 95 27 110 52 62 -1 20 -74 -58z m-178 -375 c-7 -11 -4 -20 6 -20 10 0 14 -24 8 -53 -7 -37 -3 -49 13 -39 37 23 26 -17 -17 -63 -22 -24 -40 -52 -40 -63 0 -11 -8 -25 -17 -30 -10 -6 -7 47 6 118 14 72 21 130 17 130 -5 0 -3 9 4 20 7 11 17 20 22 20 6 0 5 -9 -2 -20z m-210 -258 c0 -41 -27 -84 -63 -104 -35 -19 -37 -17 -13 21 14 22 33 41 43 41 9 0 12 14 6 30 -7 17 -3 30 8 30 10 0 19 -8 19 -18z m-100 -322 c-47 -45 -90 -77 -96 -71 -6 6 -22 1 -36 -10 -18 -16 -24 -13 -20 11 4 29 212 172 229 158 5 -4 -30 -43 -77 -88z m-180 -88 c0 -16 11 -32 24 -37 15 -5 11 -13 -10 -21 -23 -9 -34 -3 -34 19 0 26 -5 27 -30 7 -17 -14 -37 -19 -45 -11 -8 8 3 27 24 43 49 36 71 36 71 0z"/> <path d="M5465 2580 c-3 -49 77 -56 115 -10 36 43 12 59 -28 19 -18 -18 -44 -28 -57 -22 -19 7 -19 10 1 11 15 1 21 11 14 22 -20 32 -41 23 -45 -20z"/> <path d="M505 2525 c-20 -6 -20 -13 0 -33 39 -38 95 -54 95 -26 0 31 -62 70 -95 59z"/> <path d="M1113 2486 c24 -4 59 -26 78 -47 19 -22 44 -39 56 -39 11 0 -1 23 -27 50 -29 31 -67 49 -98 47 -45 -2 -46 -4 -9 -11z"/> <path d="M1 2370 c-1 -97 26 -141 88 -146 20 -1 60 -82 54 -110 -2 -8 10 -20 27 -27 16 -6 30 -24 30 -40 0 -16 8 -24 18 -18 15 9 32 -21 72 -129 26 -71 52 -119 70 -130 12 -7 36 -49 53 -92 17 -43 39 -73 49 -67 10 6 18 -3 18 -21 0 -18 9 -27 20 -20 11 7 20 3 20 -8 0 -11 27 -49 60 -85 33 -36 60 -77 60 -91 0 -15 11 -24 23 -21 13 3 35 -16 48 -41 13 -26 32 -48 41 -50 10 -2 15 -15 12 -29 -3 -14 4 -25 15 -25 33 0 181 -141 181 -172 0 -16 10 -28 21 -28 12 0 16 -8 10 -18 -6 -11 11 -37 39 -58 27 -22 50 -50 50 -63 0 -13 7 -20 15 -15 8 4 60 -38 115 -93 55 -55 87 -94 70 -86 -16 8 -12 3 9 -11 21 -14 78 -64 125 -111 47 -47 93 -85 102 -85 9 0 35 -20 57 -45 91 -101 211 -184 234 -161 7 7 13 2 13 -11 0 -13 16 -23 36 -23 20 0 45 -8 55 -17 10 -9 78 -37 149 -61 72 -24 148 -52 170 -62 75 -34 200 -60 286 -60 51 0 81 -8 74 -20 -7 -12 255 -19 739 -18 413 0 751 7 751 15 0 8 32 27 71 41 40 14 76 38 82 53 6 14 22 22 36 17 24 -10 220 83 341 162 80 52 310 275 310 301 0 11 28 45 62 75 34 29 54 54 45 55 -9 0 -1 9 18 21 20 11 31 29 24 39 -6 11 3 19 20 19 17 0 31 13 31 30 0 16 18 41 40 55 22 13 40 35 40 49 0 13 17 35 37 50 21 14 37 31 36 36 -4 18 67 110 82 107 8 -2 13 6 10 16 -4 11 3 14 14 7 12 -7 31 11 44 39 13 28 35 51 49 51 14 0 32 10 40 23 10 16 5 18 -14 6 -24 -14 -24 -12 -1 17 15 18 36 29 45 23 10 -6 26 10 37 37 10 27 33 54 52 62 19 7 29 19 22 25 -7 7 6 29 29 48 22 20 40 43 39 52 0 10 8 17 18 17 10 0 30 11 44 25 14 14 37 25 51 25 14 0 24 11 21 24 -3 16 22 23 75 21 68 -3 72 0 30 14 -48 16 -48 17 -5 19 37 2 45 13 45 70 l0 68 -71 -37 c-39 -20 -105 -42 -145 -49 -59 -11 -89 -34 -149 -117 -41 -58 -159 -190 -263 -294 -103 -104 -191 -207 -196 -229 -5 -22 -20 -38 -34 -35 -14 4 -19 -3 -12 -14 7 -12 -14 -54 -45 -96 -32 -41 -110 -144 -173 -229 -413 -554 -1271 -829 -2037 -654 -156 36 -145 63 20 50 82 -7 124 -4 107 7 -18 11 85 18 264 19 456 1 960 163 1203 387 22 20 51 32 65 26 14 -5 26 -1 26 10 0 10 13 19 29 19 16 0 40 16 55 37 14 20 51 52 81 72 30 20 55 48 55 63 0 25 25 37 65 30 8 -1 13 6 10 17 -3 10 13 33 35 51 22 19 -5 9 -60 -21 -55 -30 -113 -66 -130 -80 -176 -149 -939 -426 -1550 -563 -343 -77 -968 -28 -1161 92 -36 22 -35 23 11 12 28 -7 -8 20 -79 59 -71 39 -163 98 -204 131 -41 33 -80 60 -87 60 -33 0 29 -53 165 -142 83 -54 141 -98 131 -98 -55 0 -426 287 -426 330 0 10 27 -8 60 -40 33 -32 60 -48 60 -38 0 21 -118 117 -144 118 -23 0 -276 267 -437 460 -82 98 -176 202 -209 230 -56 47 -126 118 -222 224 -81 89 -184 248 -258 395 -41 82 -107 178 -147 215 -47 41 -62 65 -42 66 17 0 43 -11 57 -25 15 -14 6 16 -18 65 -44 87 -72 119 -106 120 -9 0 -3 -14 15 -31 53 -54 39 -103 -29 -105 -41 -1 -60 8 -60 29 0 16 7 25 17 19 23 -15 15 51 -12 98 -20 34 -24 26 -24 -60z"/> <path d="M5600 2439 c0 -13 13 -18 29 -12 20 7 25 1 17 -19 -6 -17 -24 -25 -40 -19 -15 6 -23 3 -17 -7 5 -9 33 -17 61 -17 35 0 45 7 32 23 -10 12 -19 31 -19 42 -1 29 -63 38 -63 9z"/> <path d="M1170 2400 c35 -39 35 -40 -2 -40 -23 0 -29 -6 -16 -15 12 -8 38 -64 57 -125 44 -143 174 -420 196 -420 10 0 12 9 5 20 -7 11 -5 21 4 22 9 0 32 4 51 8 19 3 35 -2 35 -13 0 -11 10 -13 22 -6 16 10 14 19 -5 31 -15 9 -28 26 -29 37 -2 12 -4 31 -5 43 -2 12 -19 17 -38 10 -29 -10 -29 -7 4 18 21 16 29 30 17 30 -26 0 -108 151 -91 168 6 7 -12 12 -40 12 -29 0 -58 9 -65 20 -7 11 -2 20 10 20 12 0 17 9 11 19 -7 11 -25 14 -42 8 -16 -6 -29 -3 -29 8 0 34 25 44 63 24 25 -14 37 -14 37 1 0 12 -13 26 -30 33 -16 6 -30 20 -30 30 0 11 10 13 23 5 15 -9 18 -5 9 9 -8 13 -22 19 -31 14 -8 -6 -32 8 -51 29 -20 22 -45 40 -56 40 -11 0 -4 -18 16 -40z m218 -351 c6 -16 6 -42 -1 -59 -13 -34 -47 -41 -47 -10 0 11 10 20 21 20 12 0 16 9 9 20 -7 11 -30 20 -52 20 -51 0 -34 30 19 34 22 2 45 -10 51 -25z"/> <path d="M749 2339 c-20 -22 -47 -36 -60 -31 -30 11 -13 -71 19 -93 42 -28 59 -15 21 15 -54 42 23 109 128 112 66 2 68 4 23 18 -78 25 -91 23 -131 -21z"/> <path d="M1465 2264 c-36 -40 -65 -82 -65 -93 0 -12 9 -7 20 9 18 27 22 27 42 0 18 -25 20 -23 9 8 -8 25 3 55 32 85 24 26 40 51 35 55 -4 4 -37 -24 -73 -64z"/> <path d="M5461 2301 c-16 -10 -36 -14 -45 -8 -9 5 -16 0 -16 -12 0 -11 8 -21 18 -21 10 0 14 -18 8 -40 -6 -23 -1 -40 13 -40 13 0 18 8 12 19 -7 10 0 26 14 35 19 12 43 87 28 86 -2 0 -16 -9 -32 -19z"/> <path d="M5192 2073 c9 -27 5 -34 -13 -22 -16 10 -20 7 -11 -8 22 -36 52 -27 52 16 0 21 16 42 35 47 19 5 10 9 -20 7 -45 -1 -53 -9 -43 -40z"/> <path d="M723 2062 c-21 -13 -22 -26 -4 -60 13 -24 32 -38 43 -31 12 8 6 24 -16 39 -30 23 -31 29 -6 37 88 29 90 30 50 31 -22 1 -52 -6 -67 -16z"/> <path d="M5254 2040 c-9 -33 -2 -39 38 -31 27 5 48 -1 48 -14 0 -12 6 -16 13 -8 14 13 -49 93 -74 93 -8 0 -19 -18 -25 -40z"/> <path d="M5500 2059 c0 -11 14 -26 31 -32 26 -10 25 -15 -5 -39 -20 -15 -27 -27 -15 -27 12 -1 32 10 45 23 13 13 24 15 24 5 0 -10 9 -5 20 11 12 19 20 21 20 6 0 -14 14 -20 31 -13 23 9 25 18 7 40 -16 19 -31 21 -48 7 -29 -24 -95 -5 -79 22 6 10 2 18 -10 18 -11 0 -21 -9 -21 -21z"/> <path d="M5091 1886 c-6 -18 -7 -36 -1 -42 5 -6 10 -4 10 5 0 9 22 1 49 -16 27 -18 54 -25 60 -15 6 10 -8 22 -31 28 -23 6 -37 20 -30 31 6 10 -1 24 -16 30 -16 6 -34 -4 -41 -21z"/> <path d="M5420 1844 c0 -19 10 -21 34 -7 23 13 48 10 78 -10 34 -22 48 -24 59 -5 10 15 7 19 -8 10 -13 -8 -28 -1 -35 16 -14 37 -128 34 -128 -4z"/> <path d="M5809 1865 c-12 -8 -28 -33 -36 -55 -12 -37 -11 -37 14 -5 15 19 42 35 60 35 18 0 33 9 33 20 0 23 -40 26 -71 5z"/> <path d="M1428 1793 c-5 -15 29 -85 76 -155 125 -185 124 -184 179 -138 44 36 33 52 -28 42 -14 -2 -22 28 -18 61 1 7 -16 8 -38 3 -31 -9 -39 -1 -39 42 0 47 19 62 66 54 10 -2 11 7 3 19 -7 12 -25 17 -40 12 -14 -6 -40 11 -58 38 -35 54 -86 65 -103 22z"/> <path d="M847 1774 c0 -16 23 -27 59 -27 53 0 55 3 22 27 -19 14 -46 26 -58 26 -13 0 -23 -12 -23 -26z"/> <path d="M1911 1782 c-6 -10 -5 -35 2 -55 13 -35 12 -35 -30 1 -23 21 -43 30 -42 20 0 -10 24 -35 53 -56 29 -22 46 -28 38 -15 -29 46 18 21 97 -52 l81 -75 -60 69 c-33 39 -76 82 -96 97 -20 16 -32 41 -26 56 12 31 0 38 -17 10z"/> <path d="M1593 1652 c-7 -19 2 -24 29 -17 23 6 50 -3 64 -22 17 -23 33 -27 54 -13 26 17 25 19 -3 20 -19 0 -37 10 -41 23 -12 34 -90 41 -103 9z"/> <path d="M1760 1510 c-13 -16 -18 -37 -11 -48 6 -10 3 -25 -9 -32 -11 -7 -20 7 -20 31 0 37 -5 40 -30 19 -44 -36 -40 -46 67 -174 288 -345 622 -547 933 -564 55 -3 103 -13 106 -23 4 -9 20 -11 37 -5 33 12 83 19 173 23 34 2 51 11 43 24 -7 11 -32 15 -56 7 -24 -7 -36 -6 -28 3 40 42 -62 70 -148 40 -66 -23 -89 -24 -101 -5 -8 13 -16 17 -16 8 0 -20 -105 35 -206 108 -43 31 -88 52 -100 45 -11 -7 -15 -4 -8 6 6 11 -43 60 -110 108 -67 49 -153 119 -191 156 -55 52 -74 61 -87 40 -13 -19 -3 -33 32 -46 38 -14 75 -55 45 -50 -57 10 -196 57 -171 58 68 2 55 40 -23 63 -45 13 -81 36 -81 51 0 15 -9 27 -20 27 -11 0 -20 14 -20 32 0 21 11 28 31 20 20 -7 26 -3 17 10 -7 13 -4 28 7 35 13 8 11 22 -5 37 -21 19 -32 18 -50 -4z"/> <path d="M1215 1485 c-42 -10 -45 -38 -7 -76 24 -24 30 -20 41 24 15 60 13 62 -34 52z"/> <path d="M1849 1418 c-20 -32 38 -82 77 -67 33 13 49 51 19 47 -56 -9 -93 4 -65 22 18 12 20 20 6 20 -13 0 -30 -10 -37 -22z"/> <path d="M4814 1227 c-31 -30 -10 -47 57 -47 40 0 66 8 60 19 -7 11 -26 14 -44 7 -17 -6 -37 -1 -45 11 -8 13 -21 17 -28 10z"/> <path d="M4355 1206 c-47 -12 -45 -37 4 -40 21 -2 49 10 62 25 25 31 8 35 -66 15z"/> <path d="M4244 1029 c-16 -19 -18 -29 -4 -29 12 0 17 -9 10 -20 -7 -11 -2 -20 11 -20 13 0 18 15 11 35 -11 32 -10 32 16 -1 16 -20 33 -28 40 -17 7 11 29 15 50 9 21 -5 44 1 52 14 8 13 3 21 -13 19 -67 -9 -138 3 -127 21 19 31 -17 22 -46 -11z"/> <path d="M1809 898 c-11 -17 -6 -21 16 -13 18 7 36 2 40 -11 6 -17 20 -18 57 0 42 19 43 22 8 22 -22 -1 -55 5 -73 13 -19 8 -40 3 -48 -11z"/> <path d="M3140 772 c0 -35 9 -46 35 -41 19 4 69 12 110 19 106 17 93 47 -15 35 -60 -7 -90 -3 -90 12 0 13 -9 23 -20 23 -11 0 -20 -22 -20 -48z"/> <path d="M3904 772 c-33 -36 -32 -37 10 -10 38 22 60 22 140 0 124 -36 220 -51 203 -33 -7 8 -25 16 -40 19 -140 28 -176 38 -169 49 20 32 -114 9 -144 -25z"/> <path d="M2274 651 c-20 -15 -57 -25 -81 -22 -31 3 -46 -7 -48 -32 -1 -20 6 -37 17 -37 11 0 15 9 8 20 -7 11 -3 21 9 23 11 1 32 3 46 5 14 2 30 -4 37 -13 6 -9 21 7 34 34 27 59 26 59 -22 22z"/> <path d="M3875 638 c-52 -30 -45 -77 9 -63 25 7 34 16 19 21 -18 6 -15 16 11 35 42 32 13 37 -39 7z"/> <path d="M3594 544 c9 -37 21 -45 57 -36 27 7 50 2 56 -13 6 -15 10 -11 11 10 1 22 19 35 47 36 45 2 44 2 -3 21 -28 11 -54 12 -60 2 -23 -34 -72 -37 -96 -6 -20 27 -22 25 -12 -14z"/> <path d="M3020 440 c-16 -11 -25 -20 -20 -21 116 -18 180 -18 180 1 0 13 -16 18 -38 11 -21 -7 -44 -3 -51 8 -16 26 -32 26 -71 1z"/> <path d="M2913 356 c5 -9 -6 -16 -25 -16 -19 0 -29 -6 -22 -12 6 -7 39 -3 72 8 48 17 61 15 69 -8 6 -19 8 -18 6 5 -2 22 -22 34 -56 36 -30 1 -50 -5 -44 -13z"/> </g> </svg> 